<svg width="140" height="40" viewBox="0 0 140 40" fill="none" xmlns="http://www.w3.org/2000/svg">
<path d="M52 20C52 13.3726 57.3726 8 64 8H84C90.6274 8 96 13.3726 96 20C96 26.6274 90.6274 32 84 32H64C57.3726 32 52 26.6274 52 20Z" fill="#444444"/>
<g filter="url(#filter0_d_1_1726)">
<path d="M74 20C74 14.4772 78.4772 10 84 10C89.5228 10 94 14.4772 94 20C94 25.5228 89.5228 30 84 30C78.4772 30 74 25.5228 74 20Z" fill="#1F1F1F"/>
</g>
<path fill-rule="evenodd" clip-rule="evenodd" d="M16 6C16.3713 6 16.7274 6.1475 16.99 6.41005C17.2525 6.6726 17.4 7.0287 17.4 7.4V8.8C17.4 9.1713 17.2525 9.5274 16.99 9.78995C16.7274 10.0525 16.3713 10.2 16 10.2C15.6287 10.2 15.2726 10.0525 15.0101 9.78995C14.7475 9.5274 14.6 9.1713 14.6 8.8V7.4C14.6 7.21615 14.6362 7.0341 14.7066 6.86424C14.7769 6.69439 14.88 6.54005 15.0101 6.41005C15.1401 6.28005 15.2944 6.17693 15.4642 6.10657C15.6341 6.03621 15.8161 6 16 6ZM6.1 10.1C6.23 9.96998 6.38435 9.86685 6.55421 9.79648C6.72408 9.72612 6.90614 9.6899 7.09 9.6899C7.27386 9.6899 7.45592 9.72612 7.62579 9.79648C7.79565 9.86685 7.95 9.96998 8.08 10.1L9.07 11.09C9.20001 11.22 9.30314 11.3744 9.3735 11.5442C9.44386 11.7141 9.48007 11.8961 9.48007 12.08C9.48007 12.2639 9.44386 12.4459 9.3735 12.6158C9.30314 12.7856 9.20001 12.94 9.07 13.07C8.93999 13.2 8.78565 13.3031 8.61578 13.3735C8.44592 13.4439 8.26386 13.4801 8.08 13.4801C7.89614 13.4801 7.71408 13.4439 7.54422 13.3735C7.37435 13.3031 7.22001 13.2 7.09 13.07L6.1 12.08C5.96998 11.95 5.86685 11.7957 5.79648 11.6258C5.72612 11.4559 5.6899 11.2739 5.6899 11.09C5.6899 10.9061 5.72612 10.7241 5.79648 10.5542C5.86685 10.3843 5.96998 10.23 6.1 10.1ZM25.9 10.1C26.03 10.23 26.1332 10.3843 26.2035 10.5542C26.2739 10.7241 26.3101 10.9061 26.3101 11.09C26.3101 11.2739 26.2739 11.4559 26.2035 11.6258C26.1332 11.7957 26.03 11.95 25.9 12.08L24.91 13.07C24.6474 13.3326 24.2913 13.4801 23.92 13.4801C23.5487 13.4801 23.1926 13.3326 22.93 13.07C22.6674 12.8074 22.5199 12.4513 22.5199 12.08C22.5199 11.7087 22.6674 11.3526 22.93 11.09L23.92 10.1C24.05 9.96998 24.2043 9.86685 24.3742 9.79648C24.5441 9.72612 24.7261 9.6899 24.91 9.6899C25.0939 9.6899 25.2759 9.72612 25.4458 9.79648C25.6157 9.86685 25.77 9.96998 25.9 10.1ZM9 20C9 18.1435 9.7375 16.363 11.0503 15.0503C12.363 13.7375 14.1435 13 16 13C17.8565 13 19.637 13.7375 20.9497 15.0503C22.2625 16.363 23 18.1435 23 20C23 21.8565 22.2625 23.637 20.9497 24.9497C19.637 26.2625 17.8565 27 16 27C14.1435 27 12.363 26.2625 11.0503 24.9497C9.7375 23.637 9 21.8565 9 20ZM2 20C2 19.6287 2.1475 19.2726 2.41005 19.0101C2.6726 18.7475 3.0287 18.6 3.4 18.6H4.8C4.98385 18.6 5.1659 18.6362 5.33576 18.7066C5.50561 18.7769 5.65995 18.88 5.78995 19.0101C5.91995 19.1401 6.02308 19.2944 6.09343 19.4642C6.16379 19.6341 6.2 19.8161 6.2 20C6.2 20.1839 6.16379 20.3659 6.09343 20.5358C6.02308 20.7056 5.91995 20.8599 5.78995 20.99C5.65995 21.12 5.50561 21.2231 5.33576 21.2934C5.1659 21.3638 4.98385 21.4 4.8 21.4H3.4C3.0287 21.4 2.6726 21.2525 2.41005 20.99C2.1475 20.7274 2 20.3713 2 20ZM25.8 20C25.8 19.6287 25.9475 19.2726 26.2101 19.0101C26.4726 18.7475 26.8287 18.6 27.2 18.6H28.6C28.7839 18.6 28.9659 18.6362 29.1358 18.7066C29.3056 18.7769 29.4599 18.88 29.5899 19.0101C29.72 19.1401 29.8231 19.2944 29.8934 19.4642C29.9638 19.6341 30 19.8161 30 20C30 20.1839 29.9638 20.3659 29.8934 20.5358C29.8231 20.7056 29.72 20.8599 29.5899 20.99C29.4599 21.12 29.3056 21.2231 29.1358 21.2934C28.9659 21.3638 28.7839 21.4 28.6 21.4H27.2C26.8287 21.4 26.4726 21.2525 26.2101 20.99C25.9475 20.7274 25.8 20.3713 25.8 20ZM22.93 26.93C23.06 26.8 23.2143 26.6968 23.3842 26.6265C23.5541 26.5561 23.7361 26.5199 23.92 26.5199C24.1039 26.5199 24.2859 26.5561 24.4558 26.6265C24.6257 26.6968 24.78 26.8 24.91 26.93L25.9 27.92C26.03 28.05 26.1331 28.2044 26.2035 28.3742C26.2739 28.5441 26.3101 28.7261 26.3101 28.91C26.3101 29.0939 26.2739 29.2759 26.2035 29.4458C26.1331 29.6156 26.03 29.77 25.9 29.9C25.77 30.03 25.6156 30.1331 25.4458 30.2035C25.2759 30.2739 25.0939 30.3101 24.91 30.3101C24.7261 30.3101 24.5441 30.2739 24.3742 30.2035C24.2044 30.1331 24.05 30.03 23.92 29.9L22.93 28.91C22.8 28.78 22.6968 28.6257 22.6265 28.4558C22.5561 28.2859 22.5199 28.1039 22.5199 27.92C22.5199 27.7361 22.5561 27.5541 22.6265 27.3842C22.6968 27.2143 22.8 27.06 22.93 26.93ZM7.09 26.93C7.35256 26.6674 7.70868 26.5199 8.08 26.5199C8.45132 26.5199 8.80744 26.6674 9.07 26.93C9.33256 27.1926 9.48007 27.5487 9.48007 27.92C9.48007 28.2913 9.33256 28.6474 9.07 28.91L8.08 29.9C7.94999 30.03 7.79565 30.1331 7.62578 30.2035C7.45592 30.2739 7.27386 30.3101 7.09 30.3101C6.90614 30.3101 6.72408 30.2739 6.55422 30.2035C6.38435 30.1331 6.23001 30.03 6.1 29.9C5.96999 29.77 5.86686 29.6156 5.7965 29.4458C5.72614 29.2759 5.68993 29.0939 5.68993 28.91C5.68993 28.7261 5.72614 28.5441 5.7965 28.3742C5.86686 28.2044 5.96999 28.05 6.1 27.92L7.09 26.93ZM16 29.8C16.3713 29.8 16.7274 29.9475 16.99 30.2101C17.2525 30.4726 17.4 30.8287 17.4 31.2V32.6C17.4 32.9713 17.2525 33.3274 16.99 33.5899C16.7274 33.8525 16.3713 34 16 34C15.6287 34 15.2726 33.8525 15.0101 33.5899C14.7475 33.3274 14.6 32.9713 14.6 32.6V31.2C14.6 30.8287 14.7475 30.4726 15.0101 30.2101C15.2726 29.9475 15.6287 29.8 16 29.8Z" fill="url(#paint0_linear_1_1726)"/>
<path fill-rule="evenodd" clip-rule="evenodd" d="M125.353 10.9391C125.491 11.0778 125.586 11.254 125.625 11.4461C125.664 11.6381 125.646 11.8373 125.573 12.0191C124.988 13.4741 124.843 15.0692 125.156 16.6059C125.47 18.1426 126.229 19.5532 127.338 20.6622C128.447 21.7712 129.857 22.5298 131.394 22.8436C132.931 23.1574 134.526 23.0126 135.981 22.4271C136.163 22.3541 136.362 22.336 136.554 22.3752C136.746 22.4144 136.922 22.5092 137.061 22.6476C137.199 22.7861 137.294 22.9622 137.333 23.1541C137.373 23.346 137.355 23.5453 137.282 23.7271C136.538 25.5796 135.256 27.167 133.602 28.2849C131.947 29.4028 129.997 30.0002 128 30.0001C122.477 30.0001 118 25.5231 118 20.0001C118 15.7931 120.598 12.1951 124.273 10.7181C124.455 10.6449 124.654 10.6268 124.846 10.6659C125.038 10.705 125.214 10.7996 125.353 10.9381V10.9391Z" fill="#A1A1A1"/>
<defs>
<filter id="filter0_d_1_1726" x="74" y="10" width="20" height="20" filterUnits="userSpaceOnUse" color-interpolation-filters="sRGB">
<feFlood flood-opacity="0" result="BackgroundImageFix"/>
<feColorMatrix in="SourceAlpha" type="matrix" values="0 0 0 0 0 0 0 0 0 0 0 0 0 0 0 0 0 0 127 0" result="hardAlpha"/>
<feOffset/>
<feColorMatrix type="matrix" values="0 0 0 0 1 0 0 0 0 1 0 0 0 0 1 0 0 0 1 0"/>
<feBlend mode="normal" in2="BackgroundImageFix" result="effect1_dropShadow_1_1726"/>
<feBlend mode="normal" in="SourceGraphic" in2="effect1_dropShadow_1_1726" result="shape"/>
</filter>
<linearGradient id="paint0_linear_1_1726" x1="2" y1="6" x2="30" y2="34" gradientUnits="userSpaceOnUse">
<stop stop-color="#BBBBBB"/>
<stop offset="1" stop-color="#BBBBBB"/>
</linearGradient>
</defs>
</svg>
